<svg xmlns="http://www.w3.org/2000/svg" width="31" height="38" fill="none"><path fill="#fff" d="M15.73 1.024q-2.269 0-4.24.62Q9.549 2.24 8.119 3.4a8.2 8.2 0 0 0-2.214 2.888q-.783 1.7-.782 3.886 0 2.133.673 3.672a9.4 9.4 0 0 0 1.81 2.644 12.3 12.3 0 0 0 2.51 1.97q.517.308 1.047.594c.548.356.929.177 1.13-.579v-4.099c.01-.182-.062-.29-.222-.437-.59-.547-1.148-1.06-1.55-1.686q-.675-1.052-.675-2.51 0-.999.35-1.89a4.1 4.1 0 0 1 1.054-1.54q.7-.647 1.781-1.025 1.08-.404 2.538-.404 1.565 0 2.805.404 1.27.378 2.188.864.917.459 1.539.837.647.378.943.378a.5.5 0 0 0 .325-.108.8.8 0 0 0 .242-.378q.081-.27.108-.648.054-.378.055-.864 0-.512-.027-.837a3.5 3.5 0 0 0-.081-.54 1.3 1.3 0 0 0-.136-.377q-.08-.162-.35-.404-.244-.27-1.053-.675-.81-.432-1.863-.756a13.3 13.3 0 0 0-2.213-.54 12.7 12.7 0 0 0-2.32-.216m1.877 16.484v4.634c-.002.12.046.141.099.18.238.175.494.316.722.483.73.534 1.332 1.135 1.782 1.837q.675 1.052.675 2.536 0 1.377-.486 2.457a5 5 0 0 1-1.404 1.835q-.89.729-2.16 1.134-1.24.405-2.752.405-1.997 0-3.535-.459-1.512-.485-2.593-1.025a18 18 0 0 1-1.782-.998q-.675-.46-1.051-.46a.67.67 0 0 0-.378.107q-.162.082-.27.325a2.4 2.4 0 0 0-.163.648 7 7 0 0 0-.053.97q0 .838.136 1.35.162.487.458.81.324.325 1.107.783.81.458 1.97.89 1.188.432 2.672.729 1.511.297 3.266.297 2.51 0 4.67-.673 2.185-.676 3.778-1.998a9.3 9.3 0 0 0 2.51-3.267q.918-1.916.917-4.372 0-2.08-.7-3.59a8.3 8.3 0 0 0-1.81-2.645 11.3 11.3 0 0 0-2.536-1.943c-.796-.466-1.557-1.018-2.426-1.285-.73-.223-.593.14-.663.305" style="fill:#fff"/><path fill="#fca311" d="M17.22 11.724q0 1.308-.496 1.782t-1.826.474q-1.309 0-1.805-.451-.474-.473-.473-1.76 0-1.308.496-1.781.496-.474 1.827-.474 1.308 0 1.781.474.497.451.497 1.736"/><path fill="#fca311" d="M16.792 30.662q0 .159-.09.277a.8.8 0 0 1-.293.179 2.3 2.3 0 0 1-.564.118q-.361.04-.925.04-.541 0-.902-.04a2.7 2.7 0 0 1-.587-.118.8.8 0 0 1-.293-.179.55.55 0 0 1-.067-.277V15.93q0-.139.067-.258a.66.66 0 0 1 .293-.198q.225-.079.587-.118.36-.04.902-.04.564 0 .925.04.36.04.564.118a.66.66 0 0 1 .293.198q.09.12.09.258z" style="stroke-width:.93703"/></svg>