<svg width="31" height="38" viewBox="0 0 31 38" fill="none" xmlns="http://www.w3.org/2000/svg">
<path d="M15.7293 1.02387C14.2178 1.02387 12.8044 1.23023 11.4908 1.64409C10.1953 2.03997 9.07197 2.6262 8.11827 3.39996C7.18257 4.17371 6.44352 5.13639 5.90369 6.28802C5.38186 7.42166 5.12197 8.71675 5.12197 10.1743C5.12197 11.5958 5.34558 12.8201 5.79545 13.8458C6.2633 14.8535 6.86681 15.7341 7.60457 16.4899C8.34234 17.2457 9.17897 17.9027 10.1147 18.4605C10.4592 18.6659 10.8086 18.863 11.1617 19.0539C11.7098 19.4098 12.0908 19.2312 12.2915 18.4751V14.376C12.3017 14.1937 12.2295 14.0863 12.0699 13.9385C11.4805 13.3923 10.9217 12.8796 10.5201 12.2531C10.0703 11.5514 9.84492 10.7147 9.84492 9.74305C9.84492 9.07727 9.96148 8.447 10.1954 7.85318C10.4293 7.25937 10.7807 6.74566 11.2486 6.31379C11.7164 5.88193 12.3104 5.54003 13.0302 5.28811C13.75 5.01818 14.5961 4.88436 15.5678 4.88436C16.6115 4.88436 17.5457 5.01818 18.3734 5.28811C19.2191 5.54002 19.9487 5.8284 20.5605 6.1523C21.1723 6.4582 21.686 6.73707 22.0999 6.989C22.5318 7.2409 22.8452 7.36697 23.0431 7.36697C23.1691 7.36697 23.2779 7.3307 23.3678 7.25872C23.4758 7.16875 23.5561 7.04268 23.6101 6.88074C23.6641 6.70081 23.7004 6.48496 23.7183 6.23303C23.7543 5.98112 23.7733 5.69274 23.7733 5.36885C23.7733 5.02695 23.7637 4.74807 23.7457 4.53215C23.7277 4.31621 23.7009 4.13664 23.6649 3.99268C23.6289 3.83073 23.5832 3.70466 23.5292 3.6147C23.4752 3.50675 23.3586 3.3729 23.1787 3.21096C23.0168 3.03102 22.6654 2.80567 22.1255 2.53576C21.5857 2.24784 20.9649 1.99573 20.2632 1.77981C19.5794 1.54588 18.842 1.36629 18.0503 1.24033C17.2765 1.09638 16.5031 1.02387 15.7293 1.02387ZM17.6072 17.5076V22.1424C17.6052 22.2619 17.6525 22.283 17.7059 22.3221C17.9442 22.4966 18.1995 22.638 18.4284 22.8055C19.1577 23.3391 19.7602 23.9403 20.21 24.6421C20.6599 25.3439 20.8852 26.1883 20.8852 27.178C20.8852 28.0957 20.7229 28.915 20.399 29.6348C20.0751 30.3546 19.6072 30.9659 18.9954 31.4697C18.4016 31.9556 17.6815 32.3337 16.8358 32.6036C16.008 32.8736 15.0911 33.0091 14.0834 33.0091C12.7518 33.0091 11.5733 32.8563 10.5476 32.5504C9.53996 32.2265 8.67485 31.8846 7.95508 31.5247C7.2353 31.1648 6.64129 30.8324 6.17344 30.5265C5.72359 30.2206 5.3739 30.0661 5.12198 30.0661C4.97803 30.0661 4.85196 30.1023 4.74401 30.1743C4.63603 30.2283 4.54623 30.3371 4.47428 30.499C4.4023 30.661 4.34705 30.8768 4.31107 31.1467C4.27507 31.3987 4.25781 31.7216 4.25781 32.1175C4.25781 32.6753 4.30356 33.126 4.39353 33.4678C4.50151 33.7917 4.65431 34.0611 4.85225 34.2771C5.06819 34.493 5.43685 34.7546 5.95869 35.0605C6.49851 35.3664 7.15555 35.6625 7.9293 35.9505C8.72106 36.2384 9.61121 36.481 10.6009 36.6789C11.6086 36.8768 12.6973 36.9761 13.8669 36.9761C15.5404 36.9761 17.0971 36.7525 18.5366 36.3027C19.9942 35.8528 21.253 35.1863 22.3147 34.3045C23.3943 33.4048 24.2309 32.3161 24.8248 31.0385C25.4366 29.7609 25.7422 28.3035 25.7422 26.666C25.7422 25.2805 25.5091 24.0829 25.0412 23.0753C24.5914 22.0496 23.9879 21.1689 23.2321 20.4312C22.4943 19.6754 21.6499 19.0279 20.6963 18.488C19.9001 18.0223 19.1391 17.4702 18.2696 17.2035C17.5402 16.9797 17.6768 17.3422 17.6072 17.5076Z" fill="white"/>
<path d="M17.2206 13.0243C17.2206 13.8964 17.0552 14.4904 16.7244 14.8061C16.3936 15.1219 15.7846 15.2798 14.8975 15.2798C14.0254 15.2798 13.4239 15.1294 13.0931 14.8287C12.7773 14.5129 12.6195 13.9265 12.6195 13.0694C12.6195 12.1973 12.7849 11.6034 13.1157 11.2876C13.4465 10.9718 14.0555 10.814 14.9426 10.814C15.8147 10.814 16.4087 10.9719 16.7244 11.2876C17.0552 11.5883 17.2206 12.1672 17.2206 13.0243Z" fill="#FCA311"/>
<path d="M16.7921 34.301C16.7921 34.4213 16.7621 34.5266 16.7018 34.6168C16.6417 34.692 16.5439 34.7596 16.4086 34.8198C16.2733 34.8799 16.0853 34.925 15.8448 34.9551C15.6042 34.985 15.2959 35.0002 14.92 35.0002C14.5591 35.0002 14.2584 34.9853 14.0178 34.9551C13.7773 34.9252 13.5818 34.8799 13.4314 34.8198C13.2961 34.7596 13.1984 34.692 13.1382 34.6168C13.0931 34.5266 13.0706 34.4213 13.0706 34.301V17.5205C13.0706 17.4152 13.0932 17.3175 13.1382 17.2273C13.1984 17.1371 13.2961 17.0619 13.4314 17.0017C13.5818 16.9416 13.7772 16.8965 14.0178 16.8664C14.2584 16.8365 14.5591 16.8213 14.92 16.8213C15.2959 16.8213 15.6042 16.8362 15.8448 16.8664C16.0853 16.8963 16.2733 16.9416 16.4086 17.0017C16.544 17.0619 16.6417 17.1371 16.7018 17.2273C16.762 17.3175 16.7921 17.4152 16.7921 17.5205V34.301Z" fill="#FCA311"/>
</svg>
